<svg xmlns="http://www.w3.org/2000/svg" width="88" height="88" viewBox="0 0 88 88"><g transform="translate(-321 -1448)"><circle cx="44" cy="44" r="44" transform="translate(321 1448)" fill="#f5f5f5"/><g transform="translate(334.879 1436.673)"><path d="M230.245,438.233a.874.874,0,0,1-.874-.874v-2.324a.6.6,0,0,0-.6-.6H226.42a.6.6,0,0,0-.6.6v2.324a.874.874,0,1,1-1.748,0v-2.324a2.355,2.355,0,0,1,2.352-2.352h2.347a2.355,2.355,0,0,1,2.352,2.352v2.324A.874.874,0,0,1,230.245,438.233Z" transform="translate(-197.953 -356.343)" fill="#19212d"/><g transform="translate(0 29.327)"><path d="M160.953,135.308a.874.874,0,0,0-1.405,1.04l4.341,5.863a1.84,1.84,0,0,1-.079,2.236l-4.677,5.337H145.965l-4.677-5.337a1.84,1.84,0,0,1-.079-2.236l8.618-11.64V137.2a4.454,4.454,0,1,0,5.561.095v-6.57l1.919,2.592a.874.874,0,0,0,1.405-1.04l-3.749-5.064a2.95,2.95,0,0,0-4.828,0L139.8,141.17a3.6,3.6,0,0,0,.17,4.429l3.9,4.451a2.855,2.855,0,0,0-1.651,2.585v4.17a2.857,2.857,0,0,0,2,2.722l.238,6.89a.874.874,0,0,0,.873.844h.031a.874.874,0,0,0,.843-.9l-.232-6.7h13.256l-.232,6.7a.874.874,0,0,0,.843.9h.031a.874.874,0,0,0,.873-.844l.24-6.93a2.856,2.856,0,0,0,1.885-2.682v-4.17a2.855,2.855,0,0,0-1.651-2.585l3.9-4.451a3.6,3.6,0,0,0,.17-4.429Zm-8.4-7.6a1.25,1.25,0,0,1,1.009.546l.082.111v9.37a.874.874,0,0,0,.394.73,2.7,2.7,0,1,1-2.88-.056.874.874,0,0,0,.422-.748v-9.449A1.238,1.238,0,0,1,152.549,127.71Zm8.578,29.1a1.1,1.1,0,0,1-1.1,1.1h-14.95a1.1,1.1,0,0,1-1.1-1.1v-4.17a1.1,1.1,0,0,1,1.1-1.1h14.95a1.1,1.1,0,0,1,1.1,1.1Z" transform="translate(-122.908 -114.699)" fill="#19212d"/><path d="M71.883,138.791a17.462,17.462,0,0,1,2.248-7.884.874.874,0,0,0-1.521-.863,19.213,19.213,0,0,0-2.478,8.738,3.487,3.487,0,1,0,1.75.008Zm-.891,5.109a1.738,1.738,0,1,1,1.738-1.738A1.74,1.74,0,0,1,70.992,143.9Z" transform="translate(-59.638 -117.914)" fill="#19212d"/><path d="M57.547,29.327H54.738a1.853,1.853,0,0,0-1.851,1.851v.53H32.955v-.53A1.853,1.853,0,0,0,31.1,29.327H28.295a1.853,1.853,0,0,0-1.851,1.851v.53H6.511v-.53A1.853,1.853,0,0,0,4.66,29.327H1.851A1.853,1.853,0,0,0,0,31.178v2.809a1.853,1.853,0,0,0,1.851,1.851H4.66a1.853,1.853,0,0,0,1.851-1.851v-.53H21.685a19.256,19.256,0,0,0-6.416,4.778.874.874,0,0,0,1.312,1.155,17.454,17.454,0,0,1,9.863-5.628v.226a1.853,1.853,0,0,0,1.851,1.851H31.1a1.853,1.853,0,0,0,1.851-1.851v-.226A17.509,17.509,0,0,1,47.154,50.2,3.486,3.486,0,1,0,48.9,50.2a19.284,19.284,0,0,0-11.19-16.739H52.887v.53a1.853,1.853,0,0,0,1.851,1.851h2.809A1.853,1.853,0,0,0,59.4,33.987V31.178a1.853,1.853,0,0,0-1.851-1.851ZM4.763,33.987a.1.1,0,0,1-.1.1H1.851a.1.1,0,0,1-.1-.1V31.178a.1.1,0,0,1,.1-.1H4.66a.1.1,0,0,1,.1.1Zm45.02,19.587a1.738,1.738,0,1,1-1.738-1.738A1.74,1.74,0,0,1,49.782,53.574ZM31.206,33.987a.1.1,0,0,1-.1.1H28.295a.1.1,0,0,1-.1-.1V31.178a.1.1,0,0,1,.1-.1H31.1a.1.1,0,0,1,.1.1Zm26.444,0a.1.1,0,0,1-.1.1H54.738a.1.1,0,0,1-.1-.1V31.178a.1.1,0,0,1,.1-.1h2.809a.1.1,0,0,1,.1.1Z" transform="translate(0 -29.327)" fill="#19212d"/></g></g></g></svg>