<svg xmlns="http://www.w3.org/2000/svg" width="88" height="88" viewBox="0 0 88 88"><g transform="translate(-129 -1441)"><circle cx="44" cy="44" r="44" transform="translate(129 1441)" fill="#f5f5f5"/><g transform="translate(147.2 1459.424)"><path d="M48.652.5H2.69A2.692,2.692,0,0,0,0,3.189V37.24A2.692,2.692,0,0,0,2.69,39.928H20.574a20.767,20.767,0,0,1-2.262,4.952H16.776a3.809,3.809,0,0,0-3.8,3.8,1.712,1.712,0,0,0,1.71,1.71H36.66a1.712,1.712,0,0,0,1.71-1.71,3.809,3.809,0,0,0-3.8-3.8H33.029a20.751,20.751,0,0,1-2.262-4.952H48.652a2.692,2.692,0,0,0,2.689-2.689V3.189A2.692,2.692,0,0,0,48.652.5ZM2.69,2H48.652a1.186,1.186,0,0,1,1.184,1.185V32.837H1.5V3.189A1.186,1.186,0,0,1,2.69,2ZM36.866,48.685a.207.207,0,0,1-.206.206H14.681a.206.206,0,0,1-.206-.206,2.3,2.3,0,0,1,2.3-2.3H34.565a2.3,2.3,0,0,1,2.3,2.3Zm-5.59-3.8H20.066a22.42,22.42,0,0,0,2.078-4.952H29.2A22.417,22.417,0,0,0,31.276,44.88Zm17.376-6.456H2.69A1.186,1.186,0,0,1,1.5,37.24v-2.9H49.837v2.9a1.186,1.186,0,0,1-1.184,1.184Zm0,0" transform="translate(0 0)" fill="#19212d"/><path d="M28.752,184.926H72.973a.752.752,0,0,0,.752-.752V171.963a.752.752,0,1,0-1.5,0v11.459H29.5V171.968a.752.752,0,1,0-1.5,0v12.206A.752.752,0,0,0,28.752,184.926Zm0,0" transform="translate(-25.192 -153.593)" fill="#19212d"/><path d="M28.752,42.206a.752.752,0,0,0,.752-.752V31H72.221v10.45a.752.752,0,1,0,1.5,0v-11.2a.752.752,0,0,0-.752-.752H28.752a.752.752,0,0,0-.752.752v11.2A.752.752,0,0,0,28.752,42.206Zm0,0" transform="translate(-25.192 -26.092)" fill="#19212d"/><path d="M70.123,63.719a1.342,1.342,0,0,0-1.341-1.34H65.849a1.342,1.342,0,0,0-1.341,1.34v2.934a1.342,1.342,0,0,0,1.341,1.34h2.934a1.342,1.342,0,0,0,1.341-1.34Zm-1.5,2.77H66.012V63.883h2.607Zm0,0" transform="translate(-58.039 -55.674)" fill="#19212d"/><path d="M70.123,137.822a1.342,1.342,0,0,0-1.341-1.341H65.849a1.342,1.342,0,0,0-1.341,1.341v2.934a1.343,1.343,0,0,0,1.341,1.341h2.934a1.343,1.343,0,0,0,1.341-1.341Zm-1.5,2.77H66.012v-2.607h2.607Zm0,0" transform="translate(-58.039 -122.346)" fill="#19212d"/><path d="M68.783,209.582H65.849a1.342,1.342,0,0,0-1.341,1.341v2.934a1.342,1.342,0,0,0,1.341,1.341h2.934a1.343,1.343,0,0,0,1.341-1.341v-2.934A1.342,1.342,0,0,0,68.783,209.582Zm-.163,4.111H66.012v-2.607h2.607Zm0,0" transform="translate(-58.039 -188.116)" fill="#19212d"/><path d="M193.66,84.426s0,.009,0,.014a.045.045,0,0,1,0,.007v.021h0c0,.007,0,.014,0,.021a.016.016,0,0,1,0,0c0,.007,0,.013,0,.02v0a.748.748,0,0,0,.166.377h0l.014.016,0,0,.012.013,0,0,.016.016.014.013.009.009,0,0a.748.748,0,0,0,.464.193h.12l.016,0h0c.023,0,.045-.007.068-.012L206.5,82.637a2.357,2.357,0,0,0,1.864-2.178c.239-4.417,1.432-6.194,1.947-6.763l2.9-2.881a.752.752,0,0,0,0-1.065l-4.136-4.136a.752.752,0,0,0-.532-.22h0a.75.75,0,0,0-.532.222l-2.881,2.9c-.567.515-2.344,1.71-6.763,1.948a2.358,2.358,0,0,0-2.178,1.864l-2.509,11.921a.744.744,0,0,0-.013.078s0,0,0,0,0,.011,0,.017,0,0,0,.006,0,.011,0,.017a.022.022,0,0,0,0,.005c0,.007,0,.013,0,.02V84.4a.069.069,0,0,0,0,.013.061.061,0,0,0,0,.009Zm14.885-17.214,3.069,3.069-1.846,1.834-3.056-3.056Zm-10.885,5.427a.851.851,0,0,1,.787-.673c1.859-.1,5.1-.484,7.145-1.9l3.17,3.17c-1.418,2.039-1.8,5.286-1.9,7.144a.851.851,0,0,1-.672.787l-9.454,1.991,3.707-3.707a2.625,2.625,0,1,0-1.064-1.063l-3.706,3.706Zm2.9,4.5a1.128,1.128,0,1,1,.331.8A1.119,1.119,0,0,1,200.563,77.133Zm0,0" transform="translate(-174.24 -58.387)" fill="#19212d"/></g></g></svg>